<svg width="16" height="17" viewBox="0 0 16 17" fill="none" xmlns="http://www.w3.org/2000/svg">
<path d="M7.25021 12.4998V7.49976H8.75021V12.4998H7.25021Z" fill="#001221"/>
<path d="M8.00021 6.49976C8.55249 6.49976 9.00021 6.05205 9.00021 5.49976C9.00021 4.94748 8.55249 4.49976 8.00021 4.49976C7.44793 4.49976 7.00021 4.94748 7.00021 5.49976C7.00021 6.05205 7.44793 6.49976 8.00021 6.49976Z" fill="#001221"/>
<path fill-rule="evenodd" clip-rule="evenodd" d="M15 8.50015C15.0001 4.63419 11.8662 1.50012 8.00023 1.5C4.13594 1.50421 1.00433 4.63571 1 8.5C1 12.366 4.13396 15.5 7.99993 15.5C11.8659 15.5 14.9999 12.3661 15 8.50015ZM14 8.49985C14.0001 11.8135 11.3139 14.4999 8.00023 14.5C4.68796 14.4964 2.0037 11.8123 2 8.5C2 5.18632 4.68625 2.50004 7.99993 2.5C11.3136 2.49996 13.9999 5.18617 14 8.49985Z" fill="#001221"/>
</svg>
