<svg width="20" height="21" viewBox="0 0 20 21" fill="none" xmlns="http://www.w3.org/2000/svg">
<path fill-rule="evenodd" clip-rule="evenodd" d="M18.1247 17.7414L14.0296 13.6463C16.3858 10.8176 16.1004 6.63602 13.3816 4.15377C10.6629 1.67153 6.47262 1.76674 3.86944 4.36993C1.26626 6.97311 1.17104 11.1634 3.65329 13.8821C6.13553 16.6009 10.3172 16.8863 13.1458 14.5301L17.2409 18.6252L18.1247 17.7414ZM3.12471 9.2502C3.12471 6.1436 5.64311 3.6252 8.74971 3.6252C11.8563 3.6252 14.3747 6.1436 14.3747 9.2502C14.3747 12.3568 11.8563 14.8752 8.74971 14.8752C5.64461 14.8716 3.12832 12.3553 3.12471 9.2502Z" fill="#C1C7D0"/>
</svg>
