<svg width="110" height="32" viewBox="0 0 110 32" fill="none" xmlns="http://www.w3.org/2000/svg">
<g clip-path="url(#clip0_30_3686)">
<path d="M2.0156 16.7864C3.15931 17.7634 4.87359 18.2506 7.15844 18.2481C9.37919 18.2481 11.0935 17.7788 12.3013 16.8402C13.5142 15.8273 14.1194 14.4169 14.1169 12.609C14.1327 11.805 13.942 11.0103 13.563 10.3011C13.1677 9.60497 12.5764 9.04047 11.8628 8.67783C11.441 8.46509 10.999 8.295 10.5434 8.17009C9.92412 7.97776 6.85072 7.13921 6.53915 7.05843C4.82743 6.63916 3.73885 6.06987 3.73116 5.05822C3.81963 3.09648 5.65444 2.93877 6.65454 2.93877C7.52596 2.89195 8.38999 3.12075 9.12403 3.59268C9.4308 3.80906 9.67942 4.09781 9.84785 4.43331C10.0163 4.76881 10.0993 5.14069 10.0895 5.51596H13.513C13.5097 4.74363 13.3467 3.98033 13.0343 3.27401C12.7218 2.5677 12.2666 1.93364 11.6974 1.41169C10.587 0.470562 9.00736 0 6.95842 0C4.77358 0 3.10674 0.453894 1.9579 1.36168C1.39323 1.83291 0.945491 2.42862 0.649828 3.10204C0.354166 3.77545 0.218634 4.50824 0.253873 5.24286C0.253873 7.35846 1.26167 8.60475 2.17715 9.17404C3.25427 9.7307 4.40998 10.1198 5.60443 10.328L6.96612 10.6242C9.33175 11.2012 10.6857 11.9282 10.6434 13.0975C10.6552 13.4126 10.5878 13.7255 10.4474 14.0078C10.3069 14.29 10.0979 14.5325 9.83949 14.7131C9.11843 15.1193 8.29645 15.3115 7.47001 15.267C6.49538 15.3209 5.52757 15.0753 4.69665 14.5631C4.05812 14.1579 3.67346 13.4514 3.54268 12.4436H0C0.10001 14.3592 0.771876 15.8042 2.0156 16.7787V16.7864ZM24.0564 11.3281C24.0564 10.0087 23.8179 7.22383 21.1176 7.22383C18.5596 7.22383 18.2827 9.94335 18.2827 11.3281C18.2827 14.8323 20.2752 15.2785 21.2215 15.2785C23.6717 15.2785 24.0564 12.6821 24.0564 11.3281ZM18.2865 21.2599C18.2881 21.4865 18.2445 21.7111 18.1584 21.9206C18.0723 22.1302 17.9454 22.3205 17.785 22.4805C17.6246 22.6405 17.434 22.7671 17.2243 22.8527C17.0145 22.9383 16.7898 22.9814 16.5633 22.9793H14.8362V10.3857C15.0362 7.02766 16.2594 4.3543 21.3753 4.16967C23.5794 4.19659 25.1796 5.07361 26.1258 6.18142C27.1413 7.49694 27.5721 9.13557 27.5721 11.1819C27.5721 13.3078 27.0657 15.0311 26.0527 16.3517C25.6031 16.9601 25.0145 17.4522 24.336 17.7867C23.6574 18.1213 22.9087 18.2887 22.1523 18.275C20.7751 18.3198 19.4221 17.9058 18.3058 17.0979V21.2676L18.2865 21.2599ZM34.6575 15.2401C33.7843 15.1977 32.1226 15.0285 31.9649 12.1167H40.7004V11.0704C40.6389 8.87785 40.1157 7.22383 39.0887 6.01602C37.9783 4.80307 36.4154 4.19788 34.3998 4.20044C32.4842 4.20044 30.9879 4.8223 29.9108 6.06602C28.8338 7.30974 28.3158 8.99069 28.3568 11.1089C28.3568 13.3578 28.8941 15.0888 29.9685 16.3017C31.043 17.5147 32.5393 18.1365 34.4575 18.1673C35.8588 18.2226 37.2396 17.8173 38.3886 17.0133C39.4633 16.228 40.2175 15.0803 40.5119 13.7822H37.477C37.027 15.0477 35.8884 15.3208 34.6575 15.2439V15.2401ZM34.5075 7.12767C36.6731 7.10074 37.0116 8.94325 37.077 9.85103H31.9264C31.9264 9.85103 31.8803 7.15844 34.4959 7.12767H34.5075ZM50.3399 13.7822H53.6556C53.6556 13.7822 52.7555 18.1673 47.7473 18.1673C42.7391 18.1673 41.512 14.1476 41.512 11.5089C41.512 8.87016 41.9775 4.362 47.555 4.20044C52.7055 4.12736 53.5518 8.58936 53.5518 8.58936H50.0245C50.0245 8.58936 49.6821 7.07767 47.5819 7.12767C45.4817 7.17768 44.9316 9.14711 44.9316 11.0204C44.9316 12.8937 45.4009 15.2516 47.7319 15.2516C49.9475 15.317 50.1437 14.0976 50.3399 13.7899V13.7822ZM57.9292 8.07777H60.0063V4.55432H57.9407V2.28485C57.9542 2.0603 57.9207 1.83541 57.8424 1.6245C57.7641 1.4136 57.6428 1.22132 57.4861 1.05992C57.3294 0.898514 57.1408 0.771528 56.9323 0.687055C56.7238 0.602582 56.5 0.562475 56.2751 0.56929H54.4596V15.3862C54.4596 16.9249 55.0596 17.8557 56.3598 17.8557H57.9368L57.9292 8.07777ZM63.6951 17.8903V10.9665C63.6951 9.95874 63.9311 9.21891 64.4029 8.74707C64.8748 8.27523 65.5966 8.05213 66.5685 8.07777H67.7225V4.47739C66.6615 4.45859 65.6025 4.57755 64.5722 4.83128C63.7601 5.05538 62.9979 5.43127 62.3258 5.93908C61.6314 6.5116 61.0885 7.24606 60.7448 8.07777C60.3306 9.12735 60.1343 10.2502 60.1679 11.3781V17.8903H63.6951ZM68.7264 4.50047H72.2576V13.0783C72.2576 13.0783 72.1306 15.3862 74.5655 15.3862C74.8694 15.4091 75.1746 15.3687 75.462 15.2675C75.7494 15.1662 76.0127 15.0064 76.2351 14.7981C76.4575 14.5898 76.6342 14.3376 76.754 14.0575C76.8738 13.7773 76.9341 13.4753 76.9312 13.1706V6.15449C76.9312 6.15449 77.0504 4.49278 78.5813 4.49278H80.4123V12.4513C80.3854 12.886 80.8739 18.1596 74.5655 18.1365C68.2572 18.1134 68.7572 12.8052 68.7149 12.4898L68.7264 4.50047ZM93.1675 17.9326H89.6709V9.32021C89.6709 8.3278 89.2594 6.98919 87.2899 6.98919C85.3205 6.98919 84.9589 8.50858 84.9589 9.32021V17.9326H81.4124V10.028C81.4124 7.72004 82.0932 6.32759 83.2087 5.41211C84.3242 4.49662 85.7359 4.21583 87.1861 4.14659C87.9535 4.14546 88.7187 4.23062 89.4671 4.40046C90.2135 4.57196 90.9084 4.91874 91.4942 5.41211C92.0143 4.96612 92.6304 4.64624 93.2944 4.47739C93.9936 4.27366 94.7165 4.16245 95.4446 4.14659C99.772 4.12351 101.507 6.10449 101.653 6.73917V17.9326H99.6489C99.4219 17.9358 99.1966 17.8933 98.9864 17.8077C98.7761 17.7222 98.5851 17.5953 98.4248 17.4346C98.2645 17.2739 98.138 17.0827 98.0529 16.8722C97.9678 16.6618 97.9259 16.4364 97.9295 16.2094V9.32021C97.9295 8.34318 97.5949 6.98919 95.5485 6.98919C93.5021 6.98919 93.1675 8.50858 93.1675 9.32021V17.9326Z" fill="white"/>
<path d="M102.634 6.73914V17.9172L110 12.3282L102.634 6.73914Z" fill="#0099D8"/>
<path d="M65.8029 22.6448C66.1237 22.7809 66.4073 22.992 66.6299 23.2602C66.8136 23.4828 66.9627 23.7318 67.0722 23.9988C67.1842 24.2948 67.239 24.6094 67.2338 24.9258C67.2331 25.3546 67.1289 25.7769 66.9299 26.1567C66.7082 26.5697 66.332 26.8781 65.8836 27.0145C66.2366 27.1373 66.5367 27.3777 66.7337 27.6953C66.9295 28.1254 67.0167 28.5969 66.9876 29.0685V29.6609C66.9779 29.935 66.9946 30.2094 67.0376 30.4802C67.0561 30.5826 67.0957 30.6799 67.154 30.766C67.2123 30.8521 67.288 30.9251 67.3761 30.9803V31.1995H65.349C65.2913 31.0072 65.2528 30.8495 65.2297 30.7303C65.1789 30.4769 65.1519 30.2193 65.1489 29.9609V29.1416C65.1894 28.7448 65.0871 28.3466 64.8604 28.0184C64.5578 27.7968 64.1832 27.6967 63.8103 27.7376H62.0063V31.1995H60.21V22.4178H64.4181C64.8897 22.4074 65.3592 22.4844 65.8029 22.6448ZM62.0063 23.9449V26.3106H63.9834C64.285 26.3254 64.5864 26.277 64.8681 26.1682C65.0449 26.0745 65.1894 25.9297 65.2827 25.7527C65.376 25.5757 65.4138 25.3746 65.3913 25.1758C65.4181 24.9675 65.3849 24.7559 65.2956 24.5658C65.2064 24.3758 65.0647 24.2151 64.8874 24.1026C64.621 23.9819 64.3292 23.9278 64.0373 23.9449H62.0063ZM75.4269 23.9757H70.7726V25.8451H75.0461V27.3722H70.7726V29.634H75.6423V31.2149H68.9763V22.4178H75.4269V23.9757ZM79.762 22.4178H81.843L84.9549 31.2149H82.9623L82.3815 29.407H79.1427L78.5465 31.2149H76.6232L79.762 22.4178ZM79.6428 27.8915H81.8969L80.7852 24.4296L79.6428 27.8915ZM86.5973 23.3372C86.947 22.9803 87.3667 22.6997 87.8301 22.5131C88.2935 22.3264 88.7906 22.2376 89.2899 22.2524C90.7516 22.2524 91.8223 22.7371 92.5018 23.7064C92.8515 24.187 93.0594 24.7561 93.1019 25.3489H91.2632C91.1842 25.002 91.0307 24.6765 90.8132 24.395C90.6096 24.1947 90.3653 24.0404 90.097 23.9425C89.8286 23.8447 89.5424 23.8055 89.2576 23.8278C88.9729 23.85 88.6962 23.9331 88.4463 24.0714C88.1964 24.2098 87.9791 24.4001 87.809 24.6296C87.3888 25.323 87.1915 26.1285 87.2436 26.9376C87.2436 27.9248 87.4423 28.6647 87.8398 29.157C88.0205 29.3918 88.2539 29.5806 88.5213 29.7083C88.7886 29.8359 89.0823 29.8988 89.3784 29.8917C89.6527 29.9046 89.9261 29.8516 90.1757 29.7372C90.4253 29.6227 90.6439 29.4502 90.8132 29.2339C91.0347 28.9281 91.1905 28.5797 91.2709 28.2108H93.0865C92.9615 29.1061 92.5356 29.9322 91.8787 30.5533C91.1978 31.1657 90.305 31.4886 89.3899 31.4534C88.8381 31.4808 88.2869 31.3857 87.7762 31.1749C87.2654 30.9641 86.8077 30.6428 86.4358 30.2341C85.7203 29.4186 85.3626 28.3108 85.3626 26.8799C85.3626 25.3412 85.7703 24.1578 86.5858 23.3295L86.5973 23.3372ZM94.5559 31.2149V22.4178H96.383V25.772H99.8026V22.4178H101.63V31.2149H99.8026V27.2876H96.383V31.2149H94.5559Z" fill="white"/>
<path d="M104.388 23.5679H105.438C105.696 23.5545 105.949 23.6429 106.142 23.8141C106.203 23.8751 106.251 23.9478 106.283 24.0277C106.316 24.1077 106.332 24.1933 106.33 24.2795C106.33 24.6988 106.023 24.9373 105.599 24.995L106.423 26.0643H106.188L105.396 25.0334H104.576V26.0681H104.392L104.388 23.5679ZM105.415 24.8642C105.834 24.8642 106.146 24.6526 106.146 24.291C106.146 23.9564 105.88 23.7448 105.426 23.7448H104.572V24.8719L105.415 24.8642Z" fill="white"/>
<path d="M105.272 27.3336C104.783 27.3336 104.305 27.1885 103.898 26.9167C103.492 26.645 103.175 26.2587 102.987 25.8067C102.8 25.3548 102.751 24.8575 102.847 24.3777C102.942 23.8979 103.178 23.4572 103.524 23.1113C103.869 22.7654 104.31 22.5299 104.79 22.4344C105.27 22.339 105.767 22.388 106.219 22.5752C106.671 22.7624 107.057 23.0794 107.329 23.4861C107.601 23.8929 107.746 24.3711 107.746 24.8602C107.745 25.5159 107.484 26.1444 107.02 26.608C106.557 27.0716 105.928 27.3326 105.272 27.3336ZM105.272 22.5292C104.811 22.5292 104.361 22.6659 103.977 22.9221C103.594 23.1782 103.295 23.5423 103.119 23.9682C102.942 24.3941 102.896 24.8628 102.986 25.315C103.076 25.7672 103.298 26.1825 103.624 26.5085C103.95 26.8345 104.366 27.0565 104.818 27.1465C105.27 27.2364 105.739 27.1902 106.165 27.0138C106.59 26.8374 106.955 26.5386 107.211 26.1553C107.467 25.7719 107.604 25.3213 107.604 24.8602C107.602 24.2423 107.357 23.65 106.92 23.2131C106.483 22.7762 105.89 22.5302 105.272 22.5292Z" fill="white"/>
</g>
<defs>
<clipPath id="clip0_30_3686">
<rect width="110" height="31.461" fill="white"/>
</clipPath>
</defs>
</svg>
