<svg width="18" height="15" viewBox="0 0 18 15" fill="none" xmlns="http://www.w3.org/2000/svg">
<path fill-rule="evenodd" clip-rule="evenodd" d="M11.5163 6.588L14.6669 9.738L17.8169 6.588L16.9331 5.70421L15.2838 7.35345C15.2113 3.94329 12.813 1.02633 9.4812 0.295987C6.14937 -0.434351 2.75079 1.21193 1.25848 4.27909C-0.233837 7.34625 0.568339 11.0364 3.1993 13.2072C5.83027 15.378 9.60559 15.4648 12.3335 13.4172L11.5828 12.4174C10.5209 13.2187 9.22594 13.6502 7.89571 13.6461C4.52182 13.6496 1.77586 10.9327 1.74359 7.55895C1.71132 4.18522 4.4048 1.41622 7.77814 1.35523C11.1515 1.29423 13.9433 3.96403 14.033 7.33673L12.4001 5.70419L11.5163 6.588Z" fill="#63738A"/>
</svg>
